<!-- <svg width="265" height="92" viewBox="0 0 265 92" fill="none" xmlns="http://www.w3.org/2000/svg">
<rect x="8" y="14" width="36" height="8" rx="4" fill="#FDB819"/>
<rect x="68" width="38" height="8" rx="4" fill="#5884D7"/>
<rect x="84" y="14" width="14" height="8" rx="4" fill="#5884D7"/>
<rect x="18" y="28" width="12" height="8" rx="4" fill="#FDB819"/>
<rect x="34" y="56" width="12" height="8" rx="4" fill="#5884D7"/>
<rect x="64" y="84" width="8" height="8" rx="4" fill="#5884D7"/>
<rect x="34" y="84" width="24" height="8" rx="4" fill="#24CACE"/>
<rect x="52" y="56" width="20" height="8" rx="4" fill="#24CACE"/>
<rect x="34" y="70" width="38" height="8" rx="4" fill="#24CACE"/>
<rect width="12" height="8" rx="4" fill="#FDB819"/>
<rect x="28" y="42" width="20" height="8" rx="4" fill="#24CACE"/>
<rect x="36" y="28" width="24" height="8" rx="4" fill="#24CACE"/>
<rect x="18" width="20" height="8" rx="4" fill="#24CACE"/>
<rect x="54" y="42" width="24" height="8" rx="4" fill="#5884D7"/>
<rect x="62" y="14" width="16" height="8" rx="4" fill="#24CACE"/>
<rect x="66" y="28" width="22" height="8" rx="4" fill="#5884D7"/>
<path d="M110.448 91.48C105.264 91.48 100.656 90.36 96.624 88.12C92.656 85.816 89.52 82.648 87.216 78.616C84.976 74.584 83.856 69.976 83.856 64.792C83.856 59.544 84.912 54.936 87.024 50.968C89.2 46.936 92.176 43.768 95.952 41.464C99.728 39.16 104.08 38.008 109.008 38.008C113.872 38.008 118.096 39.128 121.68 41.368C125.328 43.544 128.144 46.584 130.128 50.488C132.112 54.392 133.104 58.84 133.104 63.832C133.104 64.856 132.784 65.688 132.144 66.328C131.504 66.904 130.672 67.192 129.648 67.192H88.848V61.048H130.416L126.288 64.024C126.352 60.312 125.68 56.984 124.272 54.04C122.864 51.096 120.848 48.792 118.224 47.128C115.664 45.464 112.592 44.632 109.008 44.632C105.36 44.632 102.16 45.496 99.408 47.224C96.656 48.952 94.512 51.352 92.976 54.424C91.504 57.432 90.768 60.888 90.768 64.792C90.768 68.696 91.6 72.152 93.264 75.16C94.992 78.168 97.328 80.536 100.272 82.264C103.216 83.992 106.608 84.856 110.448 84.856C112.752 84.856 115.056 84.472 117.36 83.704C119.728 82.872 121.616 81.848 123.024 80.632C123.728 80.056 124.528 79.768 125.424 79.768C126.32 79.704 127.088 79.928 127.728 80.44C128.56 81.208 128.976 82.04 128.976 82.936C129.04 83.832 128.688 84.6 127.92 85.24C125.808 87.032 123.12 88.536 119.856 89.752C116.592 90.904 113.456 91.48 110.448 91.48ZM161.686 91C160.15 91 158.998 90.168 158.23 88.504L136.918 43.288C136.534 42.456 136.502 41.624 136.822 40.792C137.142 39.96 137.782 39.32 138.742 38.872C139.638 38.424 140.502 38.36 141.334 38.68C142.166 39 142.806 39.576 143.254 40.408L163.702 84.664H159.766L179.926 40.408C180.31 39.512 180.95 38.936 181.846 38.68C182.806 38.36 183.734 38.392 184.63 38.776C185.526 39.224 186.134 39.896 186.454 40.792C186.774 41.624 186.742 42.424 186.358 43.192L165.334 88.504C164.566 90.168 163.35 91 161.686 91ZM218.057 91.48C213.129 91.48 208.713 90.328 204.809 88.024C200.905 85.656 197.801 82.456 195.497 78.424C193.257 74.392 192.137 69.848 192.137 64.792C192.137 59.672 193.289 55.096 195.593 51.064C197.961 47.032 201.161 43.864 205.193 41.56C209.225 39.192 213.769 38.008 218.825 38.008C223.881 38.008 228.393 39.192 232.361 41.56C236.393 43.864 239.561 47.032 241.865 51.064C244.233 55.096 245.449 59.672 245.513 64.792L242.537 67.096C242.537 71.704 241.449 75.864 239.273 79.576C237.161 83.224 234.249 86.136 230.537 88.312C226.889 90.424 222.729 91.48 218.057 91.48ZM218.825 84.76C222.537 84.76 225.833 83.896 228.713 82.168C231.657 80.44 233.961 78.072 235.625 75.064C237.353 71.992 238.217 68.568 238.217 64.792C238.217 60.952 237.353 57.528 235.625 54.52C233.961 51.512 231.657 49.144 228.713 47.416C225.833 45.624 222.537 44.728 218.825 44.728C215.177 44.728 211.881 45.624 208.937 47.416C205.993 49.144 203.657 51.512 201.929 54.52C200.201 57.528 199.337 60.952 199.337 64.792C199.337 68.568 200.201 71.992 201.929 75.064C203.657 78.072 205.993 80.44 208.937 82.168C211.881 83.896 215.177 84.76 218.825 84.76ZM241.769 91C240.681 91 239.785 90.68 239.081 90.04C238.377 89.336 238.025 88.44 238.025 87.352V70.936L239.849 63.352L245.513 64.792V87.352C245.513 88.44 245.161 89.336 244.457 90.04C243.753 90.68 242.857 91 241.769 91Z" fill="#353A44"/>
</svg> -->

<svg width="265" height="92" viewBox="0 0 265 92" fill="none" xmlns="http://www.w3.org/2000/svg">
<rect x="8" y="14" width="36" height="8" rx="4" fill="#FDB819"/>
<rect x="68" width="38" height="8" rx="4" fill="#5884D7"/>
<rect x="84" y="14" width="14" height="8" rx="4" fill="#5884D7"/>
<rect x="18" y="28" width="12" height="8" rx="4" fill="#FDB819"/>
<rect x="34" y="56" width="12" height="8" rx="4" fill="#5884D7"/>
<rect x="64" y="84" width="8" height="8" rx="4" fill="#5884D7"/>
<rect x="34" y="84" width="24" height="8" rx="4" fill="#24CACE"/>
<rect x="52" y="56" width="20" height="8" rx="4" fill="#24CACE"/>
<rect x="34" y="70" width="38" height="8" rx="4" fill="#24CACE"/>
<rect width="12" height="8" rx="4" fill="#FDB819"/>
<rect x="28" y="42" width="20" height="8" rx="4" fill="#24CACE"/>
<rect x="36" y="28" width="24" height="8" rx="4" fill="#24CACE"/>
<rect x="18" width="20" height="8" rx="4" fill="#24CACE"/>
<rect x="54" y="42" width="24" height="8" rx="4" fill="#5884D7"/>
<rect x="62" y="14" width="16" height="8" rx="4" fill="#24CACE"/>
<rect x="66" y="28" width="22" height="8" rx="4" fill="#5884D7"/>
<path d="M110.448 91.48C105.264 91.48 100.656 90.36 96.624 88.12C92.656 85.816 89.52 82.648 87.216 78.616C84.976 74.584 83.856 69.976 83.856 64.792C83.856 59.544 84.912 54.936 87.024 50.968C89.2 46.936 92.176 43.768 95.952 41.464C99.728 39.16 104.08 38.008 109.008 38.008C113.872 38.008 118.096 39.128 121.68 41.368C125.328 43.544 128.144 46.584 130.128 50.488C132.112 54.392 133.104 58.84 133.104 63.832C133.104 64.856 132.784 65.688 132.144 66.328C131.504 66.904 130.672 67.192 129.648 67.192H88.848V61.048H130.416L126.288 64.024C126.352 60.312 125.68 56.984 124.272 54.04C122.864 51.096 120.848 48.792 118.224 47.128C115.664 45.464 112.592 44.632 109.008 44.632C105.36 44.632 102.16 45.496 99.408 47.224C96.656 48.952 94.512 51.352 92.976 54.424C91.504 57.432 90.768 60.888 90.768 64.792C90.768 68.696 91.6 72.152 93.264 75.16C94.992 78.168 97.328 80.536 100.272 82.264C103.216 83.992 106.608 84.856 110.448 84.856C112.752 84.856 115.056 84.472 117.36 83.704C119.728 82.872 121.616 81.848 123.024 80.632C123.728 80.056 124.528 79.768 125.424 79.768C126.32 79.704 127.088 79.928 127.728 80.44C128.56 81.208 128.976 82.04 128.976 82.936C129.04 83.832 128.688 84.6 127.92 85.24C125.808 87.032 123.12 88.536 119.856 89.752C116.592 90.904 113.456 91.48 110.448 91.48ZM161.686 91C160.15 91 158.998 90.168 158.23 88.504L136.918 43.288C136.534 42.456 136.502 41.624 136.822 40.792C137.142 39.96 137.782 39.32 138.742 38.872C139.638 38.424 140.502 38.36 141.334 38.68C142.166 39 142.806 39.576 143.254 40.408L163.702 84.664H159.766L179.926 40.408C180.31 39.512 180.95 38.936 181.846 38.68C182.806 38.36 183.734 38.392 184.63 38.776C185.526 39.224 186.134 39.896 186.454 40.792C186.774 41.624 186.742 42.424 186.358 43.192L165.334 88.504C164.566 90.168 163.35 91 161.686 91ZM218.057 91.48C213.129 91.48 208.713 90.328 204.809 88.024C200.905 85.656 197.801 82.456 195.497 78.424C193.257 74.392 192.137 69.848 192.137 64.792C192.137 59.672 193.289 55.096 195.593 51.064C197.961 47.032 201.161 43.864 205.193 41.56C209.225 39.192 213.769 38.008 218.825 38.008C223.881 38.008 228.393 39.192 232.361 41.56C236.393 43.864 239.561 47.032 241.865 51.064C244.233 55.096 245.449 59.672 245.513 64.792L242.537 67.096C242.537 71.704 241.449 75.864 239.273 79.576C237.161 83.224 234.249 86.136 230.537 88.312C226.889 90.424 222.729 91.48 218.057 91.48ZM218.825 84.76C222.537 84.76 225.833 83.896 228.713 82.168C231.657 80.44 233.961 78.072 235.625 75.064C237.353 71.992 238.217 68.568 238.217 64.792C238.217 60.952 237.353 57.528 235.625 54.52C233.961 51.512 231.657 49.144 228.713 47.416C225.833 45.624 222.537 44.728 218.825 44.728C215.177 44.728 211.881 45.624 208.937 47.416C205.993 49.144 203.657 51.512 201.929 54.52C200.201 57.528 199.337 60.952 199.337 64.792C199.337 68.568 200.201 71.992 201.929 75.064C203.657 78.072 205.993 80.44 208.937 82.168C211.881 83.896 215.177 84.76 218.825 84.76ZM241.769 91C240.681 91 239.785 90.68 239.081 90.04C238.377 89.336 238.025 88.44 238.025 87.352V70.936L239.849 63.352L245.513 64.792V87.352C245.513 88.44 245.161 89.336 244.457 90.04C243.753 90.68 242.857 91 241.769 91Z" fill="#DDB6EB"/>
</svg>
